<svg xmlns="http://www.w3.org/2000/svg" viewBox="0 0 32 32" width="32" height="32">
  <defs>
    <linearGradient id="grad1" x1="0%" y1="0%" x2="100%" y2="100%">
      <stop offset="0%" style="stop-color:#071952;stop-opacity:1" />
      <stop offset="100%" style="stop-color:#0B666A;stop-opacity:1" />
    </linearGradient>
  </defs>
  
  <!-- Chat bubble background -->
  <path d="M16 2C8.268 2 2 7.268 2 14c0 2.5.8 4.8 2.2 6.7L2 30l9.3-2.2C13.2 29.2 14.6 30 16 30c7.732 0 14-5.268 14-12S23.732 2 16 2z" fill="url(#grad1)"/>
  
  <!-- Chat dots -->
  <circle cx="12" cy="14" r="2" fill="white" opacity="0.8"/>
  <circle cx="16" cy="14" r="2" fill="white" opacity="0.8"/>
  <circle cx="20" cy="14" r="2" fill="white" opacity="0.8"/>
  
  <!-- Chat tail -->
  <path d="M16 26c-2.5 0-4.8-.8-6.7-2.2L4 26l2.2-5.3C4.8 18.8 4 16.5 4 14c0-6.627 5.373-12 12-12s12 5.373 12 12-5.373 12-12 12z" fill="url(#grad1)" opacity="0.7"/>
</svg>
